<?xml version="1.0" encoding="utf-8"?>
<!-- Generator: Adobe Illustrator 24.3.0, SVG Export Plug-In . SVG Version: 6.00 Build 0)  -->
<svg version="1.1" id="logo" xmlns="http://www.w3.org/2000/svg" xmlns:xlink="http://www.w3.org/1999/xlink" x="0px" y="0px"
	 width="190px" height="164px" viewBox="0 0 190 164" style="enable-background:new 0 0 190 164;" xml:space="preserve">
<style type="text/css">
	.st0{fill:#0095FF;}
</style>
<g>
	<path class="st0" d="M62.6,44.1c-1.1-0.9-2.5-1-3.9-1h-4.5v23.2h2.7V56.2h1.7c0.8,0,3,0,4.4-1.6c1-1.2,1-2.4,1-3.6v-2.5
		C64,46.8,64,45.2,62.6,44.1z M61.3,51.1c0,1.2-0.3,1.8-0.6,2c-0.5,0.5-1.1,0.6-2,0.6h-1.9v-8.3h1.8c1.3,0,1.6,0.1,2,0.4
		c0.6,0.5,0.7,1.3,0.7,3.2V51.1L61.3,51.1z M73,55.2l0.2-0.1c0.5-0.2,2-0.9,2.4-2.7c0.1-0.5,0.1-1.3,0.1-1.5v-3.5
		c0-0.6,0-2.3-1.4-3.5C73.2,43.1,72,43,70.8,43H66v23.2h2.7V55.5h1.4l4,10.7l0,0H77L73,55.2C72.9,55.2,73,55.2,73,55.2z M73,47.9
		v3.4c0,0.7-0.1,1.3-1,1.6C71.8,53,71.5,53,70.9,53h-2.2v-7.5H71c0.6,0,0.9,0,1.3,0.2C72.9,46.1,73,47,73,47.9z M86.1,43.7
		c-0.8-0.6-1.9-0.9-3.1-0.9h-0.1c-2.3,0-4,1.1-4.7,3c-0.2,0.7-0.4,1.7-0.4,2.7V61c0,1.3,0.1,2.7,1.1,4c1.2,1.4,3.1,1.5,3.9,1.5
		c2.8,0,4-1.5,4.4-2.2c0.6-1,0.7-2,0.7-3.2V49C87.9,47.3,87.9,45.1,86.1,43.7z M84.3,63.6c-0.4,0.3-0.8,0.4-1.4,0.4
		c-1.7,0-2.2-1.2-2.2-1.3c-0.2-0.5-0.2-1.1-0.2-2.3V48.2c0-1.2,0.3-2,1-2.5c0.4-0.3,0.9-0.4,1.4-0.4c0.7,0,1.1,0.2,1.2,0.3
		c0.5,0.2,0.7,0.6,0.7,0.8c0.4,0.8,0.5,1.8,0.5,3.5v10.7C85.3,61.8,85.2,62.9,84.3,63.6z M92.9,43.1h-2.5v23.2h3.5
		c0.4,0,1.2,0,1.9-0.2c1.3-0.3,2.1-1,2.4-1.2c1.7-1.5,2-3.5,2.1-5.2c0-0.7,0-1.3,0-2v-4.9c0-3.7-0.3-5.9-1.6-7.6
		C97.1,43.2,94.9,43.1,92.9,43.1z M97.7,52.6v5.1c0,3.2-0.4,4.6-1.6,5.4c-0.7,0.5-1.4,0.7-2.4,0.7H93V45.6h0.6
		c0.1,0,0.8,0.1,1.4,0.2c0.4,0.1,1.4,0.5,1.9,1.5C97.7,48.6,97.7,51.4,97.7,52.6z M109.9,43.1h2.7v18.2c0,1-0.1,1.8-0.3,2.4
		c-1,2.6-3.6,2.9-4.7,2.9c-0.6,0-2-0.1-3.1-0.9c-0.3-0.2-0.6-0.5-0.8-0.9c-1-1.3-1-2.7-1-4.1V43.1h2.6v17.6c0,1.3,0.1,2,0.4,2.5
		c0.3,0.4,0.8,0.9,2,0.9c0.8,0,1.3-0.3,1.5-0.4c0.8-0.6,0.8-1.4,0.8-3.6L109.9,43.1L109.9,43.1z M122.1,57.5h2.7v4
		c0,1.2-0.1,1.6-0.3,2.2c-0.4,1.1-1.5,2.8-4.8,2.8c-2.6,0-4-1.6-4.5-3.1c-0.3-0.8-0.3-1.5-0.3-2.8v-12c0-1.3,0-2.6,0.9-3.9
		c0.9-1.2,2.2-1.9,4-1.9c2.2,0,3.8,1,4.4,2.6c0.2,0.6,0.4,1.3,0.4,2.2v3.7H122v-2c0-1.6,0-2.4-0.3-3c0,0-0.2-0.3-0.6-0.6
		c-0.2-0.1-0.5-0.3-1.1-0.3c-0.5,0-0.9,0.1-1.3,0.4c-1.1,0.6-1,2-1,2.5v11.3c0,1.1,0,2.6,0.5,3.5c0.2,0.3,0.4,0.5,0.7,0.7
		c0.5,0.3,1,0.3,1.3,0.3c0.5,0,0.9-0.1,1.1-0.3c0.9-0.5,1-1.4,1-2.1v-4.2H122.1z M129.4,45.6V53h5.2v2.5h-5.2v8.3h6.3v2.5h-8.9V43.1
		h8.9v2.5H129.4z M116.1,36.5l1.9,3.3H72l1.9-3.3H116.1z M110.5,33.2L95,6.3L79.5,33.2h-3.7L95,0l19.1,33.2H110.5z M102.5,22.6
		L102.5,22.6l-3.9,8.2v2.3h-7.3v-2.3l-4-8.2h0.1l0.2,0.2c1,1.1,2.3,1.2,2.6,1.2h0.2L90,25.6c0.9,1.3,2.1,1.6,2.4,1.7
		c0.2-0.3,0.9-1.2,1.2-1.6v-0.9l-1.2-1.1l0.1-0.1c1.6-1.8,2.3-5.1,2.3-5.2H95h0.1c0,0,0.7,3.3,2.3,5.2l0.1,0.1l-1.2,1.1v0.9
		c0.3,0.4,1,1.4,1.2,1.6c0.3-0.1,1.5-0.4,2.4-1.7L99.5,24h0.2c0.2,0,1.5-0.1,2.6-1.2L102.5,22.6z M108,100.1
		c0,7.1-5.7,12.8-12.8,12.8c-7.1,0-12.8-5.7-12.8-12.8c0-7.1,5.7-12.8,12.8-12.8C102.2,87.3,108,93,108,100.1z M95.7,128.9v0.9l0,0
		c0,0.6-0.1,0.8-0.3,1c-0.2,0.2-0.5,0.3-0.9,0.3h-0.9v-3.8h0.8c0.6,0,0.7,0,0.9,0.2C95.6,127.6,95.7,128,95.7,128.9z M113.2,128.6
		l0.8,4.6h-1.6L113.2,128.6z M76,128.6l0.8,4.6h-1.6L76,128.6z M135.9,70.8L131,77l-6-7.7l-6,7.7l-6-7.7l-6,7.7l-6-7.7L95,77l-6-7.7
		L83,77l-6-7.7L71,77l-6-7.7L59,77l-4.9-6.2l-41.8,72.3h165.3L135.9,70.8z M59.7,134.4c0,0.3-0.1,0.7-0.2,1
		c-0.1,0.3-0.3,0.6-0.5,0.8s-0.4,0.4-0.7,0.6c-0.3,0.1-0.6,0.2-1,0.2s-0.8-0.1-1.1-0.3s-0.5-0.4-0.6-0.6l1-0.9
		c0.1,0.1,0.2,0.2,0.3,0.2c0.1,0.1,0.3,0.1,0.5,0.1c0.1,0,0.2,0,0.3-0.1c0.1,0,0.2-0.1,0.3-0.2c0.1-0.1,0.2-0.3,0.3-0.4
		c0.1-0.2,0.1-0.4,0.1-0.7v-8h1.2v8.3H59.7z M70.5,119.8h-3.2h-7.2h-3.2v-5.5h3.2V88h-4.4l4.4-7.7h7.2v33.9h3.2V119.8z M77.5,136.9
		l-0.4-2.3H75l-0.4,2.3h-1.2l2.1-10.7h1l2.1,10.7H77.5z M96.9,129.8c0,0.5,0,1.1-0.5,1.6c-0.6,0.7-1.6,0.7-2,0.7h-0.8v4.7h-1.2
		v-10.7h2.1c0.6,0,1.3,0,1.8,0.5c0.6,0.5,0.6,1.3,0.6,2.1V129.8z M95.1,119.8c-5.5,0-10.1-1.9-14-5.8s-5.8-8.5-5.8-14
		c0-5.4,1.9-10.1,5.8-14s8.5-5.8,14-5.8s10.1,1.9,14,5.8s5.8,8.5,5.8,14s-1.9,10.1-5.8,14S100.6,119.8,95.1,119.8z M114.7,136.9
		l-0.4-2.3h-2.1l-0.4,2.3h-1.2l2.1-10.7h1l2.1,10.7H114.7z M134.3,136.9h-1.2l-2.3-7.1v7.1h-1.2v-10.7h1.2l2.3,7.1v-7.1h1.2V136.9z
		 M134.3,119.8h-3.2h-7.2h-3.2v-5.5h3.2V88h-4.4l4.4-7.7h7.2v33.9h3.2V119.8z"/>
	<g>
		<path class="st0" d="M19.4,163.4c-0.9,0.6-1.8,0.6-2.1,0.6c-0.5,0-2.5,0-3.1-2.1c-0.2-0.6-0.2-1.1-0.2-1.7v-1.7h1.6v0.8
			c0,1,0,1.5,0.2,2c0.1,0.4,0.5,1.1,1.5,1.1c0.7,0,1.3-0.3,1.6-1c0.2-0.4,0.2-0.8,0.2-0.9c0-1.3-0.5-1.8-1.3-2.7l-1.9-2.1
			c-1.1-1.2-1.6-2.1-1.6-3.8c0-0.2,0-0.8,0.2-1.4c0.3-1,1-2.1,3-2.1c0.5,0,2.3,0,2.8,2c0.1,0.5,0.1,1.2,0.1,1.8v1h-1.5
			c0-0.9,0-0.7,0-1.3c0-0.7-0.1-1.4-0.7-1.7c-0.3-0.2-0.6-0.2-0.7-0.2c-0.4,0-0.8,0.1-1,0.4c-0.2,0.2-0.2,0.3-0.3,0.4
			c-0.1,0.2-0.1,0.5-0.1,1c0,0.1,0,0.5,0.1,0.9c0.2,0.7,0.8,1.3,1.2,1.8l2.2,2.5c0.2,0.2,0.3,0.4,0.4,0.6c0.3,0.5,0.8,1.3,0.8,2.7
			C20.7,162.1,20,162.9,19.4,163.4z"/>
		<path class="st0" d="M39.8,163.8v-15.2h6.1v1.7h-4.3v4.5h3.8v1.7h-3.8v5.6H46v1.7H39.8z"/>
		<path class="st0" d="M70.2,163.8l-0.5-2.9h-3.2l-0.5,2.9h-1.8l3-15.2H69l3,15.2H70.2z M68.1,151.4l-1.3,7.8h2.6L68.1,151.4z"/>
		<path class="st0" d="M95.7,163.4c-0.9,0.6-1.8,0.6-2.1,0.6c-0.5,0-2.5,0-3.1-2.1c-0.2-0.6-0.2-1.1-0.2-1.7v-1.7h1.6v0.8
			c0,1,0,1.5,0.2,2c0.1,0.4,0.5,1.1,1.5,1.1c0.7,0,1.3-0.3,1.6-1c0.2-0.4,0.2-0.8,0.2-0.9c0-1.3-0.5-1.8-1.3-2.7l-1.9-2.1
			c-1.1-1.2-1.6-2.1-1.6-3.8c0-0.2,0-0.8,0.2-1.4c0.3-1,1-2.1,3-2.1c0.5,0,2.3,0,2.8,2c0.1,0.5,0.1,1.2,0.1,1.8v1h-1.5
			c0-0.9,0-0.7,0-1.3c0-0.7-0.1-1.4-0.7-1.7c-0.3-0.2-0.6-0.2-0.7-0.2c-0.4,0-0.8,0.1-1,0.4c-0.2,0.2-0.2,0.3-0.3,0.4
			c-0.1,0.2-0.1,0.5-0.1,1c0,0.1,0,0.5,0.1,0.9c0.2,0.7,0.8,1.3,1.2,1.8l2.2,2.5c0.2,0.2,0.3,0.4,0.4,0.6c0.3,0.5,0.8,1.3,0.8,2.7
			C97,162.1,96.3,162.9,95.7,163.4z"/>
		<path class="st0" d="M122.8,158.6c0,0.5,0,0.9,0,1.4c-0.1,1.1-0.2,2.4-1,3.2c-0.4,0.4-1.1,0.8-2.4,0.8c-0.4,0-1.9,0.1-2.7-1.2
			c-0.1-0.2-0.3-0.5-0.4-1c-0.2-0.8-0.2-2.6-0.2-4.8c0-1.4,0-2.7,0-4.1c0-1.7,0.3-2.6,0.7-3.3c0.4-0.6,1.2-1.3,2.8-1.3
			c0.4,0,2.1,0,2.8,1.7c0.2,0.4,0.3,0.9,0.3,1.4c0.1,1.1,0.1,3.5,0.1,4.6C122.9,156.9,122.8,157.7,122.8,158.6z M121.1,152.8
			c0-0.6,0-1.6-0.3-2.1c-0.2-0.3-0.6-0.8-1.3-0.8c-0.2,0-0.6,0-1,0.4c-0.7,0.6-0.7,1.6-0.7,3.4v1.1c0,1.5,0,2.9,0,4.4
			c0,1.1,0,1.7,0.1,2.2s0.5,1.1,1.5,1.1c0.6,0,1.1-0.3,1.3-0.9c0.3-0.6,0.3-1.9,0.3-3.6c0-0.7,0-1.3,0-2
			C121.1,154.9,121.1,153.8,121.1,152.8z"/>
		<path class="st0" d="M146.5,163.8l-2.7-13.2l0.2,13.2h-1.7v-15.2h2.4l2.8,13.3l-0.2-13.3h1.7v15.2H146.5z"/>
		<path class="st0" d="M168.3,163.8V162l2.8-5.3c0.2-0.4,0.4-0.8,0.6-1.2c0.6-1.3,0.8-1.9,0.8-3.3c0-0.1,0-0.5-0.1-0.9
			c-0.2-1-0.8-1.1-1.2-1.1c-0.5,0-0.7,0.2-0.8,0.4c-0.4,0.5-0.4,1.2-0.4,1.8v1.7h-1.6v-1.9c0-0.2,0-0.4,0-0.6c0-0.5,0-1.9,1.2-2.7
			c0.5-0.3,1.1-0.5,1.6-0.5c1.8,0,2.5,1.4,2.7,2.1c0.1,0.3,0.2,0.9,0.2,1.8c0,0.6,0,1.8-0.6,3.2c-0.2,0.5-0.4,0.9-0.7,1.4l-2.8,5.2
			h4.3v1.6h-6V163.8z"/>
	</g>
</g>
</svg>
